<?xml version="1.0" encoding="UTF-8"?>
<svg height="128px" viewBox="0 0 128 128" width="128px" xmlns="http://www.w3.org/2000/svg" xmlns:xlink="http://www.w3.org/1999/xlink">
    <linearGradient id="a" gradientTransform="matrix(0.232143 0 0 0.328947 -8.566895 263.826942)" gradientUnits="userSpaceOnUse" x1="88.595886" x2="536.595886" y1="-449.394012" y2="-449.394012">
        <stop offset="0" stop-color="#77767b"/>
        <stop offset="0.0384615" stop-color="#c0bfbc"/>
        <stop offset="0.0768555" stop-color="#9a9996"/>
        <stop offset="0.923077" stop-color="#9a9996"/>
        <stop offset="0.961538" stop-color="#c0bfbc"/>
        <stop offset="1" stop-color="#77767b"/>
    </linearGradient>
    <path d="m 20 16 h 88 c 4.417969 0 8 3.582031 8 8 v 84 c 0 4.417969 -3.582031 8 -8 8 h -88 c -4.417969 0 -8 -3.582031 -8 -8 v -84 c 0 -4.417969 3.582031 -8 8 -8 z m 0 0" fill="url(#a)"/>
    <path d="m 20 12 h 88 c 4.417969 0 8 3.582031 8 8 v 84 c 0 4.417969 -3.582031 8 -8 8 h -88 c -4.417969 0 -8 -3.582031 -8 -8 v -84 c 0 -4.417969 3.582031 -8 8 -8 z m 0 0" fill="#f6f5f4"/>
    <path d="m 80.417969 49.859375 c 0 -0.300781 0.183593 -0.398437 0.921875 -0.496094 c 2.832031 -0.371093 4.257812 -0.964843 5.746094 -2.398437 c 1.539062 -1.484375 2.355468 -3.476563 2.578124 -6.320313 c 0.136719 -1.726562 0.132813 -1.726562 -0.96875 -0.078125 c -1.320312 1.980469 -3.058593 2.949219 -5.265624 2.945313 c -1.589844 -0.003907 -2.453126 -0.324219 -3.554688 -1.320313 c -1.167969 -1.058594 -1.660156 -2.234375 -1.675781 -4.003906 c -0.007813 -1.28125 0.074219 -1.632812 0.652343 -2.816406 c 0.527344 -1.078125 1.046876 -1.714844 2.601563 -3.191406 c 5.871094 -5.578126 7.070313 -7.054688 7.917969 -9.792969 l 0.453125 -1.457031 l 0.503906 1.429687 c 0.890625 2.519531 1.597656 3.460937 5.746094 7.640625 c 4.53125 4.566406 5.128906 5.4375 5.269531 7.703125 c 0.050781 0.753906 -0.011719 1.734375 -0.132812 2.183594 c -0.3125 1.164062 -1.300782 2.351562 -2.523438 3.039062 c -0.875 0.488281 -1.273438 0.589844 -2.332031 0.59375 c -0.703125 0.003907 -1.605469 -0.109375 -2.007813 -0.246093 c -1.105468 -0.382813 -2.519531 -1.601563 -3.414062 -2.945313 l -0.804688 -1.203125 v 1.253906 c 0 1.523438 0.605469 4 1.25 5.101563 c 1.03125 1.757812 3.359375 3.21875 5.765625 3.617187 c 2.109375 0.347656 2.109375 0.347656 2.109375 0.753906 c 0 0.378907 -0.160156 0.386719 -9.417968 0.386719 c -9.1875 0 -9.417969 -0.011719 -9.417969 -0.378906 z m 0 0"/>
    <path d="m 63.957031 16 h 0.085938 c 1.082031 0 1.957031 0.875 1.957031 1.957031 v 86.085938 c 0 1.082031 -0.875 1.957031 -1.957031 1.957031 h -0.085938 c -1.082031 0 -1.957031 -0.875 -1.957031 -1.957031 v -86.085938 c 0 -1.082031 0.875 -1.957031 1.957031 -1.957031 z m 0 0" fill="#5e5c64"/>
    <path d="m 18 58 h 92 c 1.105469 0 2 0.894531 2 2 s -0.894531 2 -2 2 h -92 c -1.105469 0 -2 -0.894531 -2 -2 s 0.894531 -2 2 -2 z m 0 0" fill="#5e5c64"/>
    <path d="m 26.828125 25.519531 c -2.773437 2.851563 -3.03125 7.308594 -0.601563 10.460938 c 0.195313 0.246093 0.40625 0.480469 0.628907 0.703125 l -0.007813 0.011718 l 11.371094 11.371094 l 11.316406 -11.3125 l -0.003906 -0.003906 c 2.839844 -2.839844 3.132812 -7.347656 0.6875 -10.53125 l -6.339844 4.878906 l 6.335938 -4.882812 c -2.699219 -3.5 -7.722656 -4.152344 -11.222656 -1.453125 c -0.269532 0.210937 -0.527344 0.4375 -0.765626 0.683593 l -0.066406 -0.066406 v 0.003906 c -2.851562 -2.792968 -7.320312 -3.054687 -10.480468 -0.621093 c -0.300782 0.230469 -0.585938 0.484375 -0.851563 0.757812 z m 0 0" fill="#e01b24"/>
    <path d="m 30.21875 72.433594 h 16 c 4.417968 0 8 3.582031 8 8 v 16 c 0 4.417969 -3.582032 8 -8 8 h -16 c -4.417969 0 -8 -3.582031 -8 -8 v -16 c 0 -4.417969 3.582031 -8 8 -8 z m 0 0" fill="#ffffff" stroke="#5e5c64"/>
    <g stroke="#000000" stroke-width="0.887615">
        <path d="m 41.722656 88.890625 c -0.253906 1.949219 -2.03125 3.320313 -3.972656 3.066406 c -1.941407 -0.253906 -3.308594 -2.035156 -3.058594 -3.984375 c 0.253906 -1.945312 2.03125 -3.320312 3.972656 -3.066406 c 1.941406 0.25 3.308594 2.035156 3.058594 3.980469 l -3.515625 -0.453125 z m 0 0"/>
        <path d="m 49.722656 80.890625 c -0.253906 1.949219 -2.03125 3.320313 -3.972656 3.066406 c -1.941407 -0.253906 -3.308594 -2.035156 -3.058594 -3.984375 c 0.253906 -1.945312 2.03125 -3.320312 3.972656 -3.066406 c 1.941406 0.25 3.308594 2.035156 3.058594 3.980469 l -3.515625 -0.453125 z m 0 0"/>
        <path d="m 33.722656 80.890625 c -0.253906 1.949219 -2.03125 3.320313 -3.972656 3.066406 c -1.941407 -0.253906 -3.308594 -2.035156 -3.058594 -3.984375 c 0.253906 -1.945312 2.03125 -3.320312 3.972656 -3.066406 c 1.941406 0.25 3.308594 2.035156 3.058594 3.980469 l -3.515625 -0.453125 z m 0 0"/>
        <path d="m 33.722656 96.890625 c -0.253906 1.949219 -2.03125 3.320313 -3.972656 3.066406 c -1.941407 -0.253906 -3.308594 -2.035156 -3.058594 -3.984375 c 0.253906 -1.945312 2.03125 -3.320312 3.972656 -3.066406 c 1.941406 0.25 3.308594 2.035156 3.058594 3.980469 l -3.515625 -0.453125 z m 0 0"/>
        <path d="m 49.722656 96.890625 c -0.253906 1.949219 -2.03125 3.320313 -3.972656 3.066406 c -1.941407 -0.253906 -3.308594 -2.035156 -3.058594 -3.984375 c 0.253906 -1.945312 2.03125 -3.320312 3.972656 -3.066406 c 1.941406 0.25 3.308594 2.035156 3.058594 3.980469 l -3.515625 -0.453125 z m 0 0"/>
    </g>
    <path d="m 81.78125 72.433594 h 16 c 4.417969 0 8 3.582031 8 8 v 16 c 0 4.417969 -3.582031 8 -8 8 h -16 c -4.417968 0 -8 -3.582031 -8 -8 v -16 c 0 -4.417969 3.582032 -8 8 -8 z m 0 0" fill="#ffffff" stroke="#5e5c64"/>
    <path d="m 93.285157 88.890625 c -0.253907 1.949219 -2.03125 3.320313 -3.972657 3.066407 c -1.941406 -0.253907 -3.3125 -2.035157 -3.058593 -3.984375 c 0.253906 -1.945313 2.03125 -3.320313 3.972656 -3.066407 c 1.941406 0.25 3.308594 2.035157 3.058594 3.980469 l -3.515625 -0.453125 z m 0 0" stroke="#000000" stroke-width="0.887615"/>
    <path d="m 85.285157 80.890625 c -0.253907 1.949219 -2.03125 3.320313 -3.972657 3.066407 c -1.941406 -0.253907 -3.3125 -2.035157 -3.058593 -3.984375 c 0.253906 -1.945313 2.03125 -3.320313 3.972656 -3.066407 c 1.941406 0.25 3.308594 2.035157 3.058594 3.980469 l -3.515625 -0.453125 z m 0 0" stroke="#000000" stroke-width="0.887615"/>
    <path d="m 101.285157 96.890625 c -0.253907 1.949219 -2.03125 3.320313 -3.972657 3.066407 c -1.941406 -0.253907 -3.3125 -2.035157 -3.058593 -3.984375 c 0.253906 -1.945313 2.03125 -3.320313 3.972656 -3.066407 c 1.941406 0.25 3.308594 2.035157 3.058594 3.980469 l -3.515625 -0.453125 z m 0 0" stroke="#000000" stroke-width="0.887615"/>
</svg>
