<?xml version="1.0" encoding="UTF-8"?>
<svg height="16px" viewBox="0 0 16 16" width="16px" xmlns="http://www.w3.org/2000/svg">
    <path d="m 7 1 h 2 v 14 h -2 z m 0 0"/>
    <path d="m 15 7 v 2 h -14 v -2 z m 0 0"/>
    <path d="m 4 3 l 1 -1 l 1 1 l -2 3 l -2 -3 l 1 -1 z m 0 0"/>
    <path d="m 12 5 l -1 1 l -1 -1 l 2 -3 l 2 3 l -1 1 z m 0 0"/>
    <path d="m 4 11 h 1 v 1 h -1 z m 0 0"/>
    <path d="m 3 10 h 1 v 1 h -1 z m 0 0"/>
    <path d="m 5 12 h 1 v 1 h -1 z m 0 0"/>
    <path d="m 3 12 h 1 v 1 h -1 z m 0 0"/>
    <path d="m 5 10 h 1 v 1 h -1 z m 0 0"/>
    <path d="m 11 11 h 1 v 1 h -1 z m 0 0"/>
    <path d="m 10 10 h 1 v 1 h -1 z m 0 0"/>
    <path d="m 12 12 h 1 v 1 h -1 z m 0 0"/>
</svg>
